<?xml version="1.0" encoding="utf-8"?>
<!-- Generator: Adobe Illustrator 23.0.1, SVG Export Plug-In . SVG Version: 6.00 Build 0)  -->
<svg version="1.1" id="圖層_1" xmlns="http://www.w3.org/2000/svg" xmlns:xlink="http://www.w3.org/1999/xlink" x="0px" y="0px"
	 viewBox="0 0 230 50" style="enable-background:new 0 0 230 50;" xml:space="preserve">
<style type="text/css">
	.st0{fill:#0A0A0A;}
</style>
<g>
	<path class="st0" d="M10.8,20.3H5.2l-1.4,0.2c-0.2,0-0.2,0-0.3-0.1c-0.1-0.2-0.1-0.5-0.2-0.8c0-0.1,0.1-0.1,0.3-0.1l1.6,0.2h5.6
		v-2.2H6.5v1c0,0.1-0.1,0.2-0.2,0.4c-0.5,0.2-1,0.3-1.5,0.1c-0.1-0.1-0.2-0.2-0.2-0.3v-7.5c0-0.1,0-0.2,0-0.3c0,0,0.1-0.1,0.2,0
		c0.5,0.3,1.1,0.6,1.8,1h0.6h3.6v-1.5H3.2l-1.4,0.2c-0.2,0-0.2,0-0.3-0.1c0-0.3-0.1-0.6-0.2-0.9c0-0.1,0.1-0.1,0.3-0.1l1.6,0.2h7.6
		V8.4C8.2,8.5,6,8.5,4.3,8.3C4.1,8.3,4,8.2,4,8c0-0.1,0.1-0.2,0.2-0.2c2.4,0,4.9-0.3,7.4-0.8c2.4-0.5,4.1-1,5.2-1.6
		c0.3-0.2,0.5-0.2,0.5-0.1c0.5,0.4,0.9,0.8,1.4,1.2c0.3,0.3,0.4,0.6,0.2,0.9c-0.2,0.3-0.5,0.3-1,0c-0.2-0.1-0.4-0.1-0.5-0.1
		c-1.5,0.4-3.1,0.7-4.8,0.8v1.4h5.2l1.5-1.4c0.1-0.1,0.2-0.1,0.4,0l2,1.5c0.2,0.2,0.3,0.3,0.3,0.5c-0.1,0.2-0.2,0.2-0.5,0.3h-8.8
		v1.5h3.8l1.1-1.1c0.2-0.2,0.3-0.2,0.5,0l1.1,1.1c0.8,0.8,0.7,1.4-0.4,1.6c-0.1,0-0.2,0.1-0.2,0.2v4.4c0,0.2-0.1,0.4-0.3,0.5l0,0
		l1.3,1c0.2,0.2,0.3,0.3,0.3,0.5c-0.1,0.2-0.2,0.2-0.5,0.3h-6.7v2h5.8l1.4-1.6c0.1-0.1,0.2-0.1,0.4,0l2,1.5c0.2,0.2,0.3,0.3,0.3,0.5
		c-0.1,0.2-0.2,0.2-0.5,0.3H2.7l-1.4,0.1c-0.2,0-0.2,0-0.3-0.1c-0.1-0.2-0.1-0.5-0.2-0.8c0-0.1,0.1-0.1,0.3-0.1l1.6,0.2h8.1V20.3z
		 M8.6,4.5v1.6c0,0.2-0.1,0.3-0.4,0.4C7.8,6.7,7.4,6.7,7,6.6c-0.2,0-0.3-0.2-0.3-0.3V4.5H2.9L1.5,4.7c-0.1,0-0.2,0-0.2-0.1
		C1.2,4.4,1.1,4.1,1,3.8c0-0.1,0.1-0.1,0.3-0.1l1.6,0.2h3.8v-2c0-0.1,0-0.2,0-0.3c0-0.1,0.1-0.1,0.2-0.1C7.4,1.6,8,1.7,8.7,1.8
		c0.6,0,0.9,0.2,0.9,0.5c0,0.4-0.3,0.6-0.8,0.7C8.7,3,8.6,3.1,8.6,3.2v0.6h5.5v-2c0-0.1,0-0.2,0-0.3c0-0.1,0.1-0.1,0.2-0.1
		c0.5,0.1,1.1,0.2,1.8,0.3c0.5,0.1,0.8,0.3,0.8,0.6c0,0.4-0.3,0.6-0.8,0.7c-0.1,0-0.2,0.1-0.2,0.2v0.6h2.4l1.4-1.6
		c0.1-0.1,0.2-0.1,0.4,0l2,1.5c0.2,0.2,0.3,0.3,0.3,0.5c-0.1,0.2-0.2,0.2-0.5,0.3h-6v0.8c0,0.2-0.1,0.3-0.4,0.4
		C15.1,6,14.7,6,14.3,5.9C14.1,5.8,14,5.7,14,5.5v-1H8.6z M10.8,12.5H7.2l-0.7,0.1v1.9h4.2v-2H10.8z M10.8,15.1H6.5v1.8h4.2v-1.8
		H10.8z M12.6,14.5h4.1v-2h-4.1C12.6,12.5,12.6,14.5,12.6,14.5z M12.6,16.9h4.1v-1.8h-4.1C12.6,15.1,12.6,16.9,12.6,16.9z
		 M16.9,18.6c-0.1-0.1-0.2-0.2-0.2-0.4v-0.7h-4.1v2.2h3.3L16.9,18.6z"/>
	<path class="st0" d="M34.9,7.5c0-0.1,0.1-0.2,0.2-0.2c0.7,0.2,1.3,0.3,2,0.5c0.5,0.1,0.7,0.4,0.6,0.8C37.6,8.9,37.3,9,36.8,9
		c-0.2,0-0.2,0-0.3,0.1c-1.5,4.6-3.4,7.8-5.8,9.7c-0.1,0.1-0.3,0.1-0.4,0s0-0.2,0.1-0.4c2-2.7,3.4-6,4.3-10.1
		C34.8,8.1,34.8,7.8,34.9,7.5z M41.1,1.6c0-0.1,0.1-0.1,0.2-0.1c0.6,0.1,1.2,0.2,1.8,0.3c0.6,0.1,1,0.3,1,0.7s-0.3,0.6-0.8,0.7
		c-0.2,0-0.3,0.1-0.2,0.3v18.2c0,0.3-0.2,0.7-0.6,1.1c-0.4,0.4-1.1,0.6-2.1,0.8c0-0.9-0.8-1.6-2.4-2.2c-0.2-0.1-0.3-0.2-0.3-0.4
		c0.1-0.2,0.2-0.2,0.4-0.1c0.9,0.2,1.7,0.4,2.5,0.5c0.3,0,0.4-0.1,0.5-0.2s0.1-0.2,0.1-0.4V2C41.1,1.8,41.1,1.7,41.1,1.6z M46.7,7.8
		c0.1-0.1,0.2-0.1,0.3,0c3.1,3.2,4.9,6,5.3,8.3c0.1,0.6,0,1-0.3,1.4c-0.2,0.3-0.4,0.5-0.6,0.5c-0.2,0-0.4,0-0.6-0.1
		c-0.2-0.1-0.3-0.3-0.4-0.7c-0.7-3.4-1.9-6.4-3.8-9.1C46.6,8,46.6,7.9,46.7,7.8z"/>
	<path class="st0" d="M75.7,6c0,0.2-0.1,0.3-0.4,0.4c-0.4,0.2-0.8,0.2-1.2,0.1c-0.2-0.1-0.3-0.2-0.3-0.4V4.5h-5.4v1.4
		c0,0.2-0.1,0.3-0.4,0.4c-0.4,0.2-0.8,0.2-1.2,0.1c-0.2-0.1-0.3-0.2-0.3-0.4V4.5h-4.4l-1.4,0.2c-0.2,0-0.2,0-0.3-0.1
		c-0.1-0.2-0.1-0.5-0.2-0.8c0-0.1,0.1-0.1,0.3-0.1l1.6,0.2h4.4V2c0-0.1,0-0.2,0-0.3c0-0.1,0.1-0.1,0.2-0.1c0.5,0.1,1.1,0.2,1.8,0.3
		C69,2,69.3,2.2,69.3,2.5c0,0.4-0.3,0.6-0.8,0.7c-0.1,0-0.2,0.1-0.2,0.2v0.4h5.4V2c0-0.1,0-0.2,0-0.3c0-0.1,0.1-0.1,0.2-0.1
		c0.5,0.1,1.1,0.2,1.8,0.3c0.5,0.1,0.8,0.3,0.8,0.6c0,0.4-0.3,0.6-0.8,0.7c-0.1,0-0.2,0.1-0.2,0.2v0.4h2.2l1.6-1.6
		c0.1-0.1,0.2-0.1,0.4,0l2,1.5C81.9,3.9,82,4,82,4.2c-0.1,0.2-0.2,0.2-0.5,0.3h-5.8V6z M64.4,19.2c0.1,0,0.1,0.1,0.1,0.3
		c-0.1,0.8-0.4,1.6-0.8,2.4s-0.8,1.2-1.3,1.5c-0.4,0.2-0.8,0.2-1.1,0.1s-0.4-0.3-0.5-0.5c-0.2-0.6,0.1-1.1,1-1.4
		c1-0.4,1.8-1.2,2.4-2.2C64.2,19.2,64.3,19.1,64.4,19.2z M64,18.2c-0.2,0-0.3,0.2-0.4,0.4c0,0.5-0.2,0.7-0.5,0.7
		c-0.3,0-0.6-0.2-0.7-0.6c-0.2-0.7-0.4-1.5-0.5-2.3c0-0.2,0.1-0.2,0.3-0.2c1.8,0.2,4.4,0.3,7.6,0.1v-1.8h-4.5V15
		c0,0.1-0.1,0.2-0.2,0.4c-0.5,0.2-1,0.3-1.5,0.1c-0.1-0.1-0.2-0.2-0.2-0.3V8.8c0-0.1,0-0.2,0-0.3c0,0,0.1-0.1,0.2,0
		c0.5,0.3,1,0.5,1.6,0.9h0.6H70V7.7h-6.9l-1.4,0.2c-0.2,0-0.2,0-0.3-0.1c0-0.3-0.1-0.5-0.2-0.8c0-0.1,0.1-0.1,0.3-0.1l1.6,0.2H70
		V5.6c0-0.1,0-0.3,0-0.4s0-0.1,0.1-0.1c0.6,0.1,1.3,0.2,1.9,0.3c0.6,0.1,0.9,0.3,0.9,0.7c0,0.4-0.3,0.7-0.9,0.8
		c-0.1,0-0.2,0.1-0.2,0.1h5.1l1.4-1.6c0.1-0.1,0.2-0.1,0.4,0l2,1.5C80.9,7.1,81,7.2,81,7.4c-0.1,0.2-0.2,0.2-0.5,0.3h-8.7v1.7h4.5
		l1-0.8c0.1-0.1,0.2-0.1,0.4,0l1.1,0.9c0.2,0.2,0.4,0.4,0.4,0.7s-0.2,0.4-0.7,0.5c-0.1,0-0.1,0.1-0.1,0.3v3.9c0,0.2-0.1,0.4-0.3,0.4
		c-0.5,0.2-0.9,0.2-1.3,0.1c-0.2-0.1-0.3-0.2-0.3-0.4v-0.4h-4.6v1.6c1-0.1,1.9-0.3,2.7-0.4c-0.3-0.2-0.5-0.3-0.8-0.4
		c-0.1,0-0.2-0.1-0.2-0.2c0-0.1,0.1-0.2,0.3-0.2c0.7,0,1.5,0.2,2.4,0.6c1.5,0.6,2.3,1.3,2.5,2c0,0.3-0.1,0.6-0.3,0.8
		c-0.2,0.2-0.5,0.3-0.8,0.2c-0.3-0.1-1-0.7-2.1-1.9c-0.2-0.2-0.3-0.3-0.5-0.5C72.4,17.2,68.6,17.8,64,18.2z M70,10h-4.2l-0.5,0.1
		v1.6H70V10z M70,12.4h-4.7V14H70V12.4z M66.3,18.4c0-0.1,0.1-0.2,0.2-0.2c0.6,0.1,1.3,0.2,1.9,0.3c0.5,0.1,0.7,0.3,0.7,0.7
		c0,0.4-0.2,0.6-0.7,0.6c-0.2,0-0.2,0.1-0.2,0.3v0.2c0,0.5,0.2,0.8,0.5,1c0.4,0.2,1.3,0.4,2.6,0.4c2.1,0,3.3-0.1,3.6-0.4
		c0.2-0.3,0.5-0.9,0.8-2c0.1-0.2,0.2-0.3,0.3-0.3c0.2,0,0.3,0.1,0.3,0.4c0,1.3,0.2,1.9,0.5,2s0.5,0.4,0.5,0.8s-0.3,0.8-1.1,1
		c-0.8,0.3-2.4,0.4-4.7,0.4c-2.4,0-3.9-0.3-4.4-0.7c-0.5-0.5-0.8-1.1-0.8-2v-2.1C66.3,18.7,66.3,18.6,66.3,18.4z M70.1,18.3
		c0-0.1,0.1-0.2,0.3-0.2c0.5,0,1.1,0.1,1.7,0.4c0.7,0.3,1.1,0.5,1.4,0.8s0.5,0.6,0.5,0.9s0,0.6-0.3,0.8c-0.2,0.2-0.5,0.3-0.8,0.2
		c-0.3,0-0.5-0.2-0.7-0.4c-0.8-1.2-1.5-1.9-1.9-2.1C70.2,18.5,70.1,18.4,70.1,18.3z M71.9,11.7h4.6V10h-4.6V11.7z M71.9,14h4.6v-1.6
		h-4.6V14z M77.1,19.1c0-0.1,0.1-0.1,0.3-0.1c0.7,0.2,1.4,0.5,2.2,1.1c1.3,0.9,1.9,1.7,1.9,2.5c0,0.3-0.2,0.6-0.4,0.7
		c-0.3,0.1-0.5,0.2-0.8,0s-0.6-0.5-0.8-0.8c-0.9-1.7-1.7-2.7-2.3-3C77.1,19.3,77.1,19.2,77.1,19.1z"/>
	<path class="st0" d="M92.4,23.1c0,0.2-0.1,0.3-0.3,0.4c-0.5,0.2-1,0.2-1.4,0c-0.2-0.1-0.2-0.2-0.2-0.4V6.4c0-0.1,0-0.3,0-0.6
		c0-0.2,0.1-0.3,0.3-0.1c0.4,0.3,0.9,0.6,1.5,1h0.8h0.1C93.7,5.4,94,4.1,93.9,3c0-0.4,0-0.8,0-1.1c0-0.1,0-0.1,0.1-0.1
		c0.7,0,1.3,0.1,1.9,0.1s0.9,0.2,0.9,0.5S96.6,2.9,96,3c-0.2,0-0.2,0.1-0.3,0.3c-0.4,1.2-1.1,2.3-1.9,3.3h2.8l1.1-1.1
		c0.1-0.1,0.2-0.1,0.4,0l1.2,1.2c0.2,0.2,0.3,0.4,0.3,0.7c0,0.3-0.3,0.5-0.8,0.6c-0.2,0.1-0.2,0.2-0.2,0.4v14.1
		c0,0.2-0.1,0.4-0.2,0.4c-0.5,0.2-1,0.2-1.4,0c-0.1-0.1-0.2-0.2-0.2-0.4v-1.9h-4.3L92.4,23.1L92.4,23.1z M96.7,13.2V7.3H93l-0.6,0.1
		v5.9h4.3V13.2z M96.7,20.3v-6.4h-4.3v6.4H96.7z M99.7,11.4c-0.1,0.1-0.3,0.1-0.4,0s-0.1-0.2,0-0.4c1.5-2.5,2.4-5.6,2.6-9.4
		c0-0.1,0.1-0.2,0.2-0.2c0.7,0.1,1.4,0.2,2,0.3c0.5,0.1,0.7,0.3,0.7,0.7c0,0.3-0.3,0.5-0.8,0.5c-0.2,0-0.2,0.1-0.3,0.2
		c-0.3,1-0.6,2-1,3h0.5h5.6l1.1-1.3c0.1-0.1,0.2-0.1,0.3,0l1.5,1.5c0.2,0.2,0.3,0.5,0.3,0.7c0,0.3-0.3,0.4-0.8,0.5
		c-0.2,0-0.2,0.2-0.2,0.4c-0.2,5.4-0.5,9.1-0.9,11.3c-0.5,1.8-1.1,3.1-1.9,3.7c-0.5,0.4-1.4,0.6-2.5,0.7c-0.1-1.1-0.5-1.8-1.4-2.1
		c-0.2-0.1-0.3-0.2-0.2-0.4c0-0.1,0.2-0.2,0.4-0.2c1.2,0.3,2,0.3,2.5,0.2c0.5-0.2,0.8-0.7,1.1-1.4c0.9-2.3,1.3-6.7,1.3-13.1h-6.1
		l-0.8,0.1C101.6,9,100.6,10.5,99.7,11.4z M101.9,11.6c0.1-0.1,0.2-0.1,0.3-0.1c0.7,0.3,1.4,0.8,2,1.4c1.1,1.1,1.7,2,1.6,2.8
		c-0.1,0.3-0.2,0.5-0.5,0.6c-0.3,0.1-0.5,0.1-0.8-0.1c-0.3-0.2-0.5-0.4-0.6-0.8c-0.7-1.9-1.4-3.1-1.9-3.6
		C101.8,11.8,101.8,11.7,101.9,11.6z"/>
	<path class="st0" d="M124.1,13.7h-0.9l-1.5,0.2c-0.1,0-0.2,0-0.2,0c-0.1-0.3-0.1-0.6-0.2-0.8c0-0.1,0.1-0.1,0.3-0.1l1.7,0.2h0.9
		v-1.6c0-0.3,0-0.4,0.2-0.4c1.4,0.3,2.1,0.5,2.2,0.5c-0.2-0.3-0.3-0.8-0.3-1.3V9.5h-1.7c-0.1,0.4-0.2,0.7-0.3,1.1
		c-0.6,1.2-1.8,2-3.8,2.3c-0.2,0-0.3-0.1-0.3-0.2c0-0.2,0.1-0.3,0.3-0.3c0.3-0.1,0.6-0.3,0.9-0.4c0.9-0.6,1.4-1.4,1.4-2.4H122
		l-1.7,0.1c-0.1,0-0.2,0-0.2,0c-0.1-0.3-0.1-0.6-0.2-0.8c0-0.1,0.1-0.1,0.3-0.1l1.7,0.2h2.4V7.4h-1.2l-1.5,0.2c-0.1,0-0.2,0-0.2,0
		c-0.1-0.3-0.1-0.6-0.2-0.8c0-0.1,0.1-0.1,0.3-0.1l1.7,0.2h1.2V5.1c0-0.3,0-0.4,0.2-0.4c1.3,0.3,2,0.4,2.1,0.4V4H122l-1.4,0.2
		c-0.2,0-0.2,0-0.3-0.1c-0.1-0.2-0.1-0.5-0.2-0.8c0-0.1,0.1-0.1,0.3-0.1l1.6,0.2h4.7V1.8c0-0.1,0-0.2,0-0.3c0-0.1,0.1-0.1,0.2-0.1
		c0.5,0.1,1.1,0.2,1.8,0.3c0.5,0.1,0.8,0.3,0.8,0.6c0,0.4-0.3,0.6-0.8,0.7c-0.1,0-0.2,0.1-0.2,0.2v0.2h4.4V1.8c0-0.1,0-0.2,0-0.3
		c0-0.1,0.1-0.1,0.2-0.1c0.5,0.1,1.1,0.2,1.8,0.3c0.5,0.1,0.8,0.3,0.8,0.6c0,0.4-0.3,0.6-0.8,0.7c-0.1,0-0.2,0.1-0.2,0.2v0.2h2.6
		l1.4-1.6c0.1-0.1,0.2-0.1,0.4,0l2,1.5c0.2,0.2,0.3,0.3,0.3,0.5c-0.1,0.2-0.2,0.2-0.5,0.3h-6.1v1.2c0,0.2-0.1,0.3-0.4,0.4
		c-0.4,0.2-0.8,0.2-1.2,0.1c-0.2-0.1-0.3-0.2-0.3-0.4V4h-4.4v1.1c0,0.1-0.1,0.2-0.2,0.3c0.1,0,0.1,0.1,0.1,0.1l1,1.3
		c0.2,0.2,0.2,0.3,0.2,0.4c-0.1,0.1-0.2,0.2-0.3,0.2h-3.1v1.4h1.5l1-1.3c0.1-0.1,0.2-0.1,0.3,0l1.1,1.4c0.2,0.2,0.2,0.3,0.2,0.4
		c-0.1,0.1-0.2,0.2-0.3,0.2h-2.1V10c0,0.2,0.1,0.4,0.2,0.5c0.5,0.2,1.1,0.2,1.7,0c0.2-0.1,0.4-0.4,0.6-0.8c0.1-0.2,0.2-0.3,0.4-0.3
		s0.3,0.2,0.2,0.5c0,0.4,0,0.6,0,0.7c0.4,0.2,0.5,0.4,0.5,0.8c0,0.3-0.2,0.6-0.6,0.8c-0.6,0.2-1.4,0.3-2.3,0.3c-0.1,0-0.2,0-0.3,0
		l0.7,0.8c0.2,0.2,0.2,0.3,0.2,0.4c-0.1,0.1-0.2,0.2-0.3,0.2h-3v1.4c1.3-0.2,2.4-0.4,3.3-0.6c0.2-0.1,0.3,0,0.4,0.1s0,0.3-0.1,0.4
		c-1.3,0.7-3.5,1.3-6.5,2c-0.5,0.1-0.7,0.3-0.7,0.6c0,0.5-0.1,0.7-0.4,0.8c-0.3,0-0.6-0.1-0.7-0.6c-0.2-0.7-0.4-1.4-0.7-2.2
		c0-0.2,0.1-0.3,0.3-0.3c1,0.1,2.1,0.1,3.4,0L124.1,13.7L124.1,13.7z M130,22.5c-1.9,0.2-3.6,0.4-5.2,0.6c-0.3,0-0.4,0.1-0.4,0.3
		c0,0.5-0.1,0.7-0.5,0.7s-0.5-0.2-0.6-0.5c-0.2-0.7-0.3-1.4-0.5-2.1c0-0.2,0.1-0.3,0.2-0.2c1.1,0.1,2.2,0.1,3.2,0.2
		c0.4-0.7,0.6-1.4,0.7-2h-5.1l-1.4,0.2c-0.2,0-0.2,0-0.3-0.1c-0.1-0.2-0.1-0.5-0.2-0.8c0-0.1,0.1-0.1,0.3-0.1l1.6,0.2h15.1l1.4-1.6
		c0.1-0.1,0.2-0.1,0.4,0l2,1.5c0.2,0.2,0.3,0.3,0.3,0.5c-0.1,0.2-0.2,0.2-0.5,0.3H129c-0.2,0.3-0.8,1-1.7,2c2.2,0,4.7-0.2,7.4-0.7
		c-0.2-0.2-0.5-0.4-0.7-0.6c-0.1-0.1-0.1-0.2-0.1-0.3c0-0.1,0.1-0.2,0.3-0.1c0.7,0.2,1.3,0.5,2.1,0.9c1.3,0.8,1.9,1.6,1.9,2.3
		c0,0.3-0.2,0.5-0.4,0.7c-0.2,0.1-0.5,0.2-0.8,0.1c-0.4-0.2-1-1-1.7-2.5C133.7,21.8,131.9,22.2,130,22.5z M126.4,16.8h6.2l1.4-1.6
		c0.1-0.1,0.2-0.1,0.4,0l2,1.5c0.2,0.2,0.3,0.3,0.3,0.5c-0.1,0.2-0.2,0.2-0.5,0.3h-9.8l-1.4,0.2c-0.2,0-0.2,0-0.3-0.1
		c-0.1-0.2-0.1-0.5-0.2-0.8c0-0.1,0.1-0.1,0.3-0.1L126.4,16.8z M126,13.1h0.9l0.7-0.9c-0.4-0.1-0.7-0.2-0.9-0.4
		c0.2,0.4,0.1,0.7-0.5,0.9C126.1,12.7,126,12.8,126,13.1C126,13,126,13.1,126,13.1z M126.1,6.8h1l0.9-1.2c-0.4,0.1-0.8,0.2-1.1,0.1
		c0,0.2-0.2,0.4-0.5,0.5c-0.1,0-0.2,0.1-0.2,0.3L126.1,6.8L126.1,6.8z M130,16.1c-0.2,0.1-0.3,0-0.3-0.1c0-0.1,0-0.2,0.1-0.3
		c1.8-1,2.9-2.4,3.3-4.1c-0.3-0.4-0.7-0.7-1-0.9c-0.1-0.1-0.1-0.2-0.1-0.3c0.1-0.1,0.2-0.1,0.3-0.1c0.3,0.1,0.6,0.2,1,0.4
		c0.1-0.5,0.1-1.1,0.2-2h-0.6l-1.3,0.2c-0.2,0.1-0.3,0.1-0.3,0c-0.1-0.3-0.1-0.5-0.2-0.8c0-0.1,0.1-0.2,0.2-0.1l1.6,0.1h0.6
		c0-0.1,0-0.8,0-2c0-0.2,0.1-0.3,0.2-0.2c0.7,0.1,1.4,0.2,2.1,0.3c0.5,0.1,0.7,0.3,0.7,0.6c0,0.3-0.3,0.6-0.9,0.7
		c-0.1,0-0.2,0.1-0.2,0.3c0,0.1,0,0.3,0,0.4h1l1.2-1.2c0.1-0.1,0.3-0.1,0.4,0l1.7,1.4c0.3,0.2,0.3,0.5,0.3,0.8
		c-0.1,0.3-0.4,0.5-0.9,0.5c-0.2,0-0.3,0.1-0.3,0.4c0,1.4,0.2,2.5,0.8,3.3c0.1,0.2,0.3,0.3,0.4,0.3c0.1,0,0.3-0.1,0.5-0.4
		c0.3-0.4,0.6-0.9,0.9-1.5c0.1-0.2,0.2-0.3,0.4-0.2s0.2,0.2,0.2,0.4c-0.3,1.6-0.5,2.5-0.5,2.9c0,0.3,0.1,0.6,0.3,0.8
		c0.2,0.4,0.3,0.7,0.1,1c-0.2,0.3-0.6,0.4-1.2,0.2c-0.6-0.2-1.1-0.6-1.6-1.1c-1.5-1.5-2.2-3.8-2-7h-1.8c-0.1,1-0.3,2-0.6,2.9
		c0.1,0,0.1,0.1,0.1,0.1c1.5,1.1,2.2,2.1,2.1,2.9c0,0.3-0.2,0.5-0.4,0.7c-0.3,0.1-0.5,0.1-0.8,0c-0.3-0.2-0.8-0.9-1.6-2.3
		C133.4,14.4,132.1,15.4,130,16.1z"/>
	<path class="st0" d="M149.7,14.6c-0.2,0.1-0.3,0.1-0.3,0c-0.1-0.1,0-0.2,0.1-0.4c1.6-1.8,2.9-4.3,3.9-7.5c0-0.1,0.1-0.2,0.2-0.1
		c0.7,0.3,1.3,0.6,1.9,0.8c0.4,0.2,0.6,0.5,0.5,0.8c-0.1,0.3-0.5,0.4-0.9,0.3c-0.1,0-0.2,0-0.3,0.1c-0.3,0.6-0.7,1.2-1,1.8v12.8
		c0,0.1-0.1,0.3-0.2,0.4c-0.5,0.2-1,0.3-1.4,0.1c-0.2-0.1-0.3-0.2-0.2-0.4V12.8C151.2,13.6,150.4,14.2,149.7,14.6z M153.2,1.7
		c0-0.1,0.1-0.2,0.2-0.1c0.6,0.3,1.1,0.5,1.6,0.7s0.7,0.5,0.6,0.8s-0.4,0.4-0.8,0.3c-0.1,0-0.2,0-0.3,0.1c-1.3,2-2.9,3.4-4.6,4.3
		c-0.2,0.1-0.3,0.1-0.4,0c-0.1-0.1,0-0.2,0.1-0.4c1.6-1.4,2.7-3,3.4-5C153.1,2.1,153.1,1.9,153.2,1.7z M158.5,7.1h-1L156,7.3
		c-0.1,0-0.2,0-0.2,0c-0.1-0.3-0.1-0.6-0.2-0.8c0-0.1,0.1-0.1,0.3-0.1l1.7,0.2h1V2.2c0-0.1,0-0.1,0-0.2s0.1-0.1,0.2-0.1
		c0.6,0.1,1.2,0.3,1.8,0.4s0.9,0.4,0.9,0.8s-0.3,0.7-0.8,0.8c-0.2,0-0.2,0.1-0.2,0.3v2.4h1.4l1-1.4c0.1-0.1,0.2-0.1,0.3,0l1.2,1.4
		c0.2,0.2,0.2,0.3,0.2,0.4c-0.1,0.1-0.2,0.2-0.3,0.2h-3.8v15.6c0,0.2-0.1,0.4-0.3,0.5c-0.4,0.2-0.9,0.2-1.3,0
		c-0.2-0.1-0.3-0.2-0.3-0.4V11.1c-0.1,0.2-0.4,0.3-0.8,0.4c-0.2,0-0.3,0.1-0.3,0.3c0,3.9-0.9,6.7-2.6,8.5c-0.2,0.1-0.3,0.2-0.4,0.1
		c-0.1-0.1,0-0.6,0.4-1.4c0.6-1.7,0.9-4.6,0.9-8.9c0-0.2,0.1-0.3,0.3-0.3c0.7,0.1,1.3,0.2,2,0.3c0.3,0.1,0.5,0.2,0.6,0.3V7.1H158.5z
		 M161.6,2c0.1-0.1,0.2-0.1,0.3,0c0.9,0.3,1.5,0.8,1.8,1.4c0.2,0.3,0.2,0.6,0.1,0.9c0,0.3-0.2,0.5-0.5,0.6c-0.2,0.1-0.5,0-0.7-0.1
		s-0.3-0.3-0.4-0.6c-0.2-1.1-0.4-1.7-0.5-1.9C161.5,2.2,161.5,2.1,161.6,2z M161.7,10.1c0-0.1,0.1-0.2,0.2-0.1
		c0.6,0.1,1.2,0.2,1.8,0.3c0.5,0.1,0.7,0.3,0.7,0.7c0,0.3-0.2,0.5-0.7,0.6c-0.1,0-0.2,0.1-0.2,0.2v4.5c0,0.4,0,0.8,0,1
		s0.1,0.3,0.2,0.3c0.2,0,0.3,0,0.3-0.1c0.1-0.1,0.1-0.2,0.1-0.3c0.3-0.2,0.5-0.8,0.7-1.8c0-0.2,0.1-0.3,0.3-0.3s0.3,0.1,0.3,0.4
		c0.1,0.5,0.1,0.9,0.2,1.3c0.1,0.3,0.2,0.5,0.4,0.5c0.3,0.1,0.5,0.3,0.5,0.7s-0.2,0.7-0.5,0.9c-0.4,0.2-1.1,0.4-2.2,0.4
		c-1,0-1.6-0.2-1.8-0.7c-0.2-0.4-0.3-1.1-0.3-1.9v-6.3C161.7,10.3,161.7,10.2,161.7,10.1z M165.9,9.7l-1.6,0.2c-0.1,0-0.2,0-0.2,0
		c-0.1-0.3-0.1-0.6-0.2-0.8c0-0.1,0.1-0.1,0.3-0.1l1.7,0.2h2.8l1-1.4c0.1-0.1,0.2-0.1,0.3,0l1.2,1.4c0.2,0.2,0.2,0.3,0.2,0.4
		c-0.1,0.1-0.2,0.2-0.3,0.2h-2.2v11.9c0,0.5-0.2,0.9-0.6,1.3c-0.5,0.4-1.1,0.6-1.9,0.8c0-0.8-0.6-1.4-1.9-2c-0.1,0-0.2-0.1-0.2-0.3
		c0-0.2,0.1-0.2,0.3-0.2c1.3,0.2,2.1,0.3,2.2,0.2c0.1-0.1,0.2-0.3,0.2-0.6V9.7H165.9z M166.2,3.3h1.8l1-1.4c0.1-0.1,0.2-0.1,0.3,0
		l1.2,1.4c0.2,0.2,0.2,0.3,0.2,0.4c-0.1,0.1-0.2,0.2-0.3,0.2h-4.2l-1.5,0.2c-0.1,0-0.2,0-0.2,0c-0.1-0.3-0.1-0.6-0.2-0.8
		c0-0.1,0.1-0.1,0.3-0.1L166.2,3.3z"/>
</g>
<g>
	<path class="st0" d="M4.5,45.1v-8.9H1.2v-1.2h8v1.2H5.8v8.9H4.5z"/>
	<path class="st0" d="M12.3,45.1V34.9h1.2v3.6c0.6-0.7,1.3-1,2.2-1c0.5,0,1,0.1,1.4,0.3c0.4,0.2,0.7,0.5,0.9,0.9
		c0.2,0.4,0.3,0.9,0.3,1.6v4.7h-1.2v-4.7c0-0.6-0.1-1.1-0.4-1.4c-0.3-0.3-0.7-0.4-1.1-0.4c-0.4,0-0.7,0.1-1,0.3
		c-0.3,0.2-0.6,0.5-0.7,0.8s-0.2,0.8-0.2,1.4v4H12.3z"/>
	<path class="st0" d="M27.2,42.7l1.3,0.2c-0.2,0.8-0.6,1.3-1.1,1.8s-1.3,0.6-2.1,0.6c-1.1,0-1.9-0.3-2.6-1c-0.6-0.7-0.9-1.6-0.9-2.8
		c0-1.2,0.3-2.2,1-2.9c0.6-0.7,1.5-1,2.5-1c1,0,1.8,0.3,2.4,1s0.9,1.6,0.9,2.8c0,0.1,0,0.2,0,0.3H23c0,0.8,0.3,1.4,0.7,1.9
		c0.4,0.4,0.9,0.6,1.5,0.6c0.5,0,0.8-0.1,1.2-0.4C26.7,43.6,27,43.2,27.2,42.7z M23.1,40.7h4.1c-0.1-0.6-0.2-1.1-0.5-1.4
		c-0.4-0.5-0.9-0.7-1.5-0.7c-0.6,0-1.1,0.2-1.4,0.6C23.3,39.6,23.1,40.1,23.1,40.7z"/>
	<path class="st0" d="M36,45.1l3.9-10.1h1.4l4.2,10.1H44L42.8,42h-4.2l-1.1,3.1H36z M39,40.9h3.4l-1.1-2.8c-0.3-0.9-0.6-1.6-0.7-2.1
		c-0.1,0.7-0.3,1.3-0.5,1.9L39,40.9z"/>
	<path class="st0" d="M48.3,45.1v-7.3h1.1v1.1c0.3-0.5,0.6-0.9,0.8-1c0.2-0.2,0.5-0.2,0.8-0.2c0.4,0,0.8,0.1,1.3,0.4l-0.4,1.2
		c-0.3-0.2-0.6-0.3-0.9-0.3c-0.3,0-0.5,0.1-0.7,0.2c-0.2,0.2-0.4,0.4-0.5,0.7c-0.1,0.4-0.2,0.9-0.2,1.5v3.8H48.3z"/>
	<path class="st0" d="M57.7,44l0.2,1.1c-0.4,0.1-0.7,0.1-0.9,0.1c-0.5,0-0.8-0.1-1.1-0.2c-0.2-0.1-0.4-0.3-0.5-0.6
		c-0.1-0.2-0.2-0.7-0.2-1.5v-4.2h-0.9v-1h0.9v-1.8l1.2-0.7v2.6h1.3v1h-1.3V43c0,0.4,0,0.6,0.1,0.7c0,0.1,0.1,0.2,0.2,0.2
		C56.8,44,57,44,57.2,44C57.3,44,57.5,44,57.7,44z"/>
	<path class="st0" d="M66.2,41.4c0-1.4,0.4-2.4,1.1-3c0.6-0.5,1.4-0.8,2.3-0.8c1,0,1.8,0.3,2.5,1c0.6,0.7,1,1.6,1,2.7
		c0,0.9-0.1,1.7-0.4,2.2c-0.3,0.5-0.7,1-1.2,1.3c-0.5,0.3-1.1,0.4-1.8,0.4c-1,0-1.9-0.3-2.5-1C66.6,43.6,66.2,42.7,66.2,41.4z
		 M67.5,41.4c0,0.9,0.2,1.6,0.6,2.1c0.4,0.5,0.9,0.7,1.6,0.7c0.6,0,1.1-0.2,1.5-0.7c0.4-0.5,0.6-1.2,0.6-2.2c0-0.9-0.2-1.6-0.6-2.1
		c-0.4-0.5-0.9-0.7-1.5-0.7c-0.6,0-1.1,0.2-1.6,0.7C67.7,39.8,67.5,40.5,67.5,41.4z"/>
	<path class="st0" d="M76.8,45.1v-6.4h-1.1v-1h1.1V37c0-0.5,0-0.9,0.1-1.1c0.1-0.3,0.3-0.6,0.6-0.8c0.3-0.2,0.7-0.3,1.3-0.3
		c0.4,0,0.7,0,1.2,0.1L79.8,36c-0.3,0-0.5-0.1-0.7-0.1c-0.4,0-0.6,0.1-0.8,0.2S78,36.6,78,37.1v0.7h1.4v1H78v6.4H76.8z"/>
	<path class="st0" d="M88.4,45.1V34.9h3.5c0.8,0,1.4,0,1.8,0.1c0.6,0.1,1.1,0.4,1.5,0.7c0.5,0.5,0.9,1,1.2,1.7
		c0.3,0.7,0.4,1.5,0.4,2.4c0,0.8-0.1,1.5-0.3,2c-0.2,0.6-0.4,1.1-0.7,1.5c-0.3,0.4-0.6,0.7-0.9,0.9c-0.3,0.2-0.7,0.4-1.2,0.5
		c-0.5,0.1-1,0.2-1.6,0.2H88.4z M89.7,43.9h2.2c0.7,0,1.2-0.1,1.6-0.2c0.4-0.1,0.7-0.3,0.9-0.5c0.3-0.3,0.6-0.7,0.7-1.3
		c0.2-0.5,0.3-1.2,0.3-2c0-1.1-0.2-1.9-0.5-2.4c-0.3-0.6-0.8-1-1.3-1.1c-0.4-0.1-0.9-0.2-1.7-0.2h-2.1V43.9z"/>
	<path class="st0" d="M99.9,41.4c0-1.4,0.4-2.4,1.1-3c0.6-0.5,1.4-0.8,2.3-0.8c1,0,1.8,0.3,2.5,1c0.6,0.7,1,1.6,1,2.7
		c0,0.9-0.1,1.7-0.4,2.2c-0.3,0.5-0.7,1-1.2,1.3c-0.5,0.3-1.1,0.4-1.8,0.4c-1,0-1.9-0.3-2.5-1C100.2,43.6,99.9,42.7,99.9,41.4z
		 M101.2,41.4c0,0.9,0.2,1.6,0.6,2.1c0.4,0.5,0.9,0.7,1.6,0.7c0.6,0,1.1-0.2,1.5-0.7s0.6-1.2,0.6-2.2c0-0.9-0.2-1.6-0.6-2.1
		c-0.4-0.5-0.9-0.7-1.5-0.7c-0.6,0-1.1,0.2-1.6,0.7S101.2,40.5,101.2,41.4z"/>
	<path class="st0" d="M110.1,45.1v-7.3h1.1v1c0.5-0.8,1.3-1.2,2.3-1.2c0.4,0,0.9,0.1,1.2,0.2c0.4,0.2,0.6,0.4,0.8,0.6
		c0.2,0.3,0.3,0.6,0.4,0.9c0,0.2,0.1,0.6,0.1,1.2v4.5h-1.2v-4.5c0-0.5,0-0.9-0.1-1.1c-0.1-0.3-0.3-0.5-0.5-0.6
		c-0.2-0.2-0.5-0.2-0.9-0.2c-0.5,0-1,0.2-1.4,0.5c-0.4,0.3-0.6,1-0.6,1.9v4H110.1z"/>
	<path class="st0" d="M119.7,45.7l1.2,0.2c0.1,0.4,0.2,0.6,0.4,0.8c0.3,0.2,0.7,0.3,1.3,0.3c0.6,0,1-0.1,1.3-0.3
		c0.3-0.2,0.5-0.6,0.6-1c0.1-0.3,0.1-0.8,0.1-1.6c-0.5,0.6-1.2,1-2,1c-1,0-1.8-0.4-2.3-1.1c-0.6-0.7-0.8-1.6-0.8-2.6
		c0-0.7,0.1-1.3,0.4-1.9c0.3-0.6,0.6-1.1,1.1-1.4c0.5-0.3,1-0.5,1.7-0.5c0.9,0,1.6,0.4,2.1,1.1v-0.9h1.1v6.4c0,1.1-0.1,2-0.3,2.4
		c-0.2,0.5-0.6,0.9-1.1,1.1c-0.5,0.3-1.1,0.4-1.9,0.4c-0.9,0-1.6-0.2-2.1-0.6C119.9,47.1,119.7,46.5,119.7,45.7z M120.7,41.3
		c0,1,0.2,1.7,0.6,2.1s0.9,0.7,1.4,0.7c0.6,0,1.1-0.2,1.4-0.7c0.4-0.4,0.6-1.1,0.6-2.1c0-0.9-0.2-1.6-0.6-2
		c-0.4-0.5-0.9-0.7-1.4-0.7c-0.6,0-1,0.2-1.4,0.7C120.9,39.7,120.7,40.4,120.7,41.3z"/>
	<path class="st0" d="M135.3,41.8l1.3-0.1c0.1,0.5,0.2,0.9,0.4,1.2c0.2,0.3,0.6,0.6,1,0.8c0.5,0.2,1,0.3,1.6,0.3
		c0.5,0,1-0.1,1.4-0.2c0.4-0.2,0.7-0.4,0.9-0.6c0.2-0.3,0.3-0.6,0.3-0.9c0-0.3-0.1-0.6-0.3-0.8c-0.2-0.2-0.5-0.4-0.9-0.6
		c-0.3-0.1-0.9-0.3-1.8-0.5c-0.9-0.2-1.6-0.4-2-0.6c-0.5-0.3-0.8-0.6-1.1-0.9c-0.2-0.4-0.4-0.8-0.4-1.3c0-0.5,0.1-1,0.4-1.4
		c0.3-0.4,0.7-0.8,1.3-1c0.6-0.2,1.2-0.3,1.9-0.3c0.8,0,1.4,0.1,2,0.4c0.6,0.2,1,0.6,1.3,1.1s0.5,1,0.5,1.6l-1.3,0.1
		c-0.1-0.6-0.3-1.1-0.7-1.5c-0.4-0.3-1-0.5-1.8-0.5c-0.8,0-1.4,0.1-1.8,0.4c-0.4,0.3-0.6,0.7-0.6,1.1c0,0.4,0.1,0.7,0.4,0.9
		c0.3,0.2,0.9,0.5,2,0.7c1.1,0.2,1.8,0.5,2.2,0.6c0.6,0.3,1,0.6,1.3,1c0.3,0.4,0.4,0.9,0.4,1.4c0,0.5-0.2,1-0.5,1.5
		c-0.3,0.5-0.8,0.8-1.3,1.1c-0.6,0.3-1.2,0.4-2,0.4c-0.9,0-1.7-0.1-2.3-0.4c-0.6-0.3-1.1-0.7-1.5-1.2
		C135.5,43.1,135.3,42.5,135.3,41.8z"/>
	<path class="st0" d="M147,45.1V34.9h1.2v3.6c0.6-0.7,1.3-1,2.2-1c0.5,0,1,0.1,1.4,0.3c0.4,0.2,0.7,0.5,0.9,0.9
		c0.2,0.4,0.3,0.9,0.3,1.6v4.7h-1.2v-4.7c0-0.6-0.1-1.1-0.4-1.4c-0.3-0.3-0.7-0.4-1.1-0.4c-0.4,0-0.7,0.1-1,0.3
		c-0.3,0.2-0.6,0.5-0.7,0.8c-0.1,0.3-0.2,0.8-0.2,1.4v4H147z"/>
	<path class="st0" d="M161.5,44.2c-0.5,0.4-0.9,0.7-1.3,0.8c-0.4,0.2-0.9,0.2-1.4,0.2c-0.8,0-1.4-0.2-1.9-0.6
		c-0.4-0.4-0.7-0.9-0.7-1.5c0-0.4,0.1-0.7,0.2-1c0.2-0.3,0.4-0.5,0.6-0.7c0.3-0.2,0.6-0.3,0.9-0.4c0.2-0.1,0.6-0.1,1.1-0.2
		c1-0.1,1.7-0.3,2.2-0.4c0-0.2,0-0.3,0-0.3c0-0.5-0.1-0.9-0.4-1.1c-0.3-0.3-0.8-0.4-1.4-0.4c-0.6,0-1,0.1-1.3,0.3
		c-0.3,0.2-0.5,0.6-0.6,1.1l-1.2-0.2c0.1-0.5,0.3-0.9,0.5-1.3c0.3-0.3,0.6-0.6,1.1-0.7c0.5-0.2,1-0.3,1.7-0.3c0.6,0,1.1,0.1,1.5,0.2
		c0.4,0.1,0.7,0.3,0.9,0.6c0.2,0.2,0.3,0.5,0.4,0.8c0,0.2,0.1,0.6,0.1,1.1V42c0,1.2,0,1.9,0.1,2.2c0.1,0.3,0.2,0.6,0.3,0.9h-1.3
		C161.7,44.8,161.6,44.5,161.5,44.2z M161.4,41.4c-0.5,0.2-1.1,0.3-2,0.5c-0.5,0.1-0.9,0.2-1.1,0.2c-0.2,0.1-0.4,0.2-0.5,0.4
		c-0.1,0.2-0.2,0.4-0.2,0.6c0,0.3,0.1,0.6,0.4,0.8c0.3,0.2,0.6,0.3,1.1,0.3c0.5,0,0.9-0.1,1.3-0.3c0.4-0.2,0.6-0.5,0.8-0.9
		c0.1-0.3,0.2-0.7,0.2-1.2V41.4z"/>
	<path class="st0" d="M167.9,45.1l-2.2-7.3h1.3l1.2,4.2l0.4,1.6c0-0.1,0.1-0.6,0.4-1.5l1.2-4.3h1.3l1.1,4.3l0.4,1.4l0.4-1.4l1.3-4.2
		h1.2l-2.3,7.3h-1.3l-1.2-4.4l-0.3-1.3l-1.5,5.7H167.9z"/>
	<path class="st0" d="M184.1,42v-1.3h3.8V42H184.1z"/>
	<path class="st0" d="M197,45.1V34.9h1.2v3.6c0.6-0.7,1.3-1,2.2-1c0.5,0,1,0.1,1.4,0.3c0.4,0.2,0.7,0.5,0.9,0.9
		c0.2,0.4,0.3,0.9,0.3,1.6v4.7h-1.2v-4.7c0-0.6-0.1-1.1-0.4-1.4c-0.3-0.3-0.7-0.4-1.1-0.4c-0.4,0-0.7,0.1-1,0.3
		c-0.3,0.2-0.6,0.5-0.7,0.8s-0.2,0.8-0.2,1.4v4H197z"/>
	<path class="st0" d="M208.2,45.1l-2.2-7.3h1.3l1.2,4.2l0.4,1.6c0-0.1,0.1-0.6,0.4-1.5l1.2-4.3h1.3l1.1,4.3l0.4,1.4l0.4-1.4l1.3-4.2
		h1.2l-2.3,7.3h-1.3l-1.2-4.4l-0.3-1.3l-1.5,5.7H208.2z"/>
	<path class="st0" d="M224,42.7l1.3,0.2c-0.2,0.8-0.6,1.3-1.1,1.8c-0.5,0.4-1.3,0.6-2.1,0.6c-1.1,0-1.9-0.3-2.6-1
		c-0.6-0.7-0.9-1.6-0.9-2.8c0-1.2,0.3-2.2,1-2.9c0.6-0.7,1.5-1,2.5-1c1,0,1.8,0.3,2.4,1c0.6,0.7,0.9,1.6,0.9,2.8c0,0.1,0,0.2,0,0.3
		h-5.5c0,0.8,0.3,1.4,0.7,1.9c0.4,0.4,0.9,0.6,1.5,0.6c0.5,0,0.8-0.1,1.2-0.4C223.6,43.6,223.8,43.2,224,42.7z M219.9,40.7h4.1
		c-0.1-0.6-0.2-1.1-0.5-1.4c-0.4-0.5-0.9-0.7-1.5-0.7c-0.6,0-1.1,0.2-1.4,0.6C220.2,39.6,220,40.1,219.9,40.7z"/>
	<path class="st0" d="M228.8,36.4v-1.4h1.2v1.4H228.8z M228.8,45.1v-7.3h1.2v7.3H228.8z"/>
</g>
</svg>
